<?xml version="1.0" encoding="utf-8"?>
<!-- Generator: Adobe Illustrator 22.0.1, SVG Export Plug-In . SVG Version: 6.00 Build 0)  -->
<svg version="1.1" id="Layer_1" xmlns="http://www.w3.org/2000/svg" xmlns:xlink="http://www.w3.org/1999/xlink" x="0px" y="0px"
	 viewBox="0 0 1440 1440" style="enable-background:new 0 0 1440 1440;" xml:space="preserve">
<g>
	<path d="M244.8,450.7H201v-39.6h130.8v39.6H288v117.8h-43.2V450.7z"/>
	<path d="M349.3,411.1h43.2V468h41.1v-56.9h43.2v157.4h-43.2v-60.9h-41.1v60.9h-43.2V411.1z"/>
	<path d="M498.8,411.1h106.3v39.1H542v21.6h58v35.1h-58v22.5h63.8v39.1h-107V411.1z"/>
	<path d="M213.3,594.9h105.7v39.6h-62.5v31h60.5v37.3h-60.5v49.5h-43.2V594.9z"/>
	<path d="M337.6,698.8V594.9h43.2v99.8c0,16,6.5,22.5,22,22.5c14.8,0,21.8-6.7,21.8-22.5v-99.8h43.2v103.9c0,36.6-23.8,58.2-65,58.2
		C361.2,757,337.6,736.1,337.6,698.8z"/>
	<path d="M528.6,634.5h-43.8v-39.6h130.8v39.6h-43.8v117.8h-43.2V634.5z"/>
	<path d="M632.6,698.8V594.9h43.2v99.8c0,16,6.5,22.5,22,22.5c14.8,0,21.8-6.7,21.8-22.5v-99.8h43.2v103.9c0,36.6-23.8,58.2-65,58.2
		C656.2,757,632.6,736.1,632.6,698.8z"/>
	<path d="M914.2,752.3h-45.9l-23.8-47.9h-15.7v47.9h-43.2V594.9h68.8c35.3,0,56.2,19.1,56.2,54.6c0,22.7-9.4,39.6-25.9,48.3v0.4
		L914.2,752.3z M867.5,649.6c0-11-5.8-16.2-18.2-16.2h-20.5v32.8h20.5C860.9,666.2,867.5,660.1,867.5,649.6z"/>
	<path d="M931.5,594.9h106.3V634h-63.2v21.6h58v35.1h-58v22.5h63.8v39.1h-107V594.9z"/>
	<path d="M200.8,857.6c0-49.7,29.5-83.6,73.3-83.6c36,0,63.4,24.3,67.9,57.8l-41.6,7.6c-2.9-16.6-12.6-25.6-26.3-25.6
		c-18.7,0-30.1,16.2-30.1,43.8c0,27.4,11.5,43.4,30.1,43.4c14.4,0,23.6-9.2,26.8-27.4l41.6,7.4c-4.7,35.5-31.7,59.8-68.3,59.8
		C229.3,940.8,200.8,907.1,200.8,857.6z"/>
	<path d="M352.9,857.6c0-49.7,30.4-83.6,74.4-83.6c44.1,0,74.6,34,74.6,83.6c0,49.5-30.6,83.2-74.6,83.2
		C383.3,940.8,352.9,907.1,352.9,857.6z M458.8,857.6c0-27.7-12.6-43.8-31.3-43.8c-18.7,0-31.5,16.2-31.5,43.8
		c0,27.4,12.6,43.4,31.5,43.4C446.5,901,458.8,885.1,458.8,857.6z"/>
	<path d="M518,778.7h49.2l38,96h0.4l37.8-96h49.2v157.4h-42.3V850H650l-34,86.1h-21.4l-34-86.1h-0.4v86.1H518V778.7z"/>
	<path d="M717.6,778.7h67.9c35.3,0,57.1,20,57.1,56.2c0,36.4-21.8,55.8-57.1,55.8h-24.7v45.4h-43.2V778.7z M781,852.2
		c10.3,0,18.4-5.4,18.4-18c0-12.6-7.2-17.1-17.8-17.1h-20.9v35.1H781z"/>
	<path d="M933,915.9h-54.6l-6.3,20.2h-42.5L884,778.7h43.4l54.2,157.4h-42.3L933,915.9z M921.8,879.9l-16-51.7h-0.4l-16,51.7H921.8z
		"/>
	<path d="M994.3,778.7h42l47.4,85.9h0.4v-85.9h43.2v157.4h-42l-47.4-85.9h-0.4v85.9h-43.2V778.7z"/>
	<path d="M1192.1,872l-55.8-93.3h48.6l28.6,53.1h0.7l28.3-53.1h48.6l-55.8,93.3v64.1h-43.2V872z"/>
</g>
</svg>
