<svg xmlns="http://www.w3.org/2000/svg" viewBox="0 0 1008.95 308.54"><defs><style>.cls-1{fill:#231f20;}</style></defs><title>Asset 3</title><g id="Layer_2" data-name="Layer 2"><g id="Layer_1-2" data-name="Layer 1"><polygon class="cls-1" points="0 207.7 36.19 207.7 36.19 129.34 100.39 129.34 100.39 99.76 36.19 99.76 36.19 28.64 100.39 28.64 100.39 0 0 0 0 207.7"/><path class="cls-1" d="M237.59,180.3a34.57,34.57,0,0,1-14.78,3.16,33.6,33.6,0,0,1-14.59-3.18,31.93,31.93,0,0,1-11.52-9.42c-6.27-8.18-9.44-19.49-9.45-33.34V0h-36.5V139.72c0,18.34,4,33.16,11.06,44.51s17.22,19.41,30.46,24.23a89.41,89.41,0,0,0,30.54,4.9c17.27,0,31.66-3.78,42.87-10.74s19.43-17.11,24.41-30.78c3.3-9.11,5.1-19.83,5.1-32.12V0H259V137.52c0,10.42-1.85,19.37-5.47,26.68a34,34,0,0,1-15.94,16.1"/><polygon class="cls-1" points="388.66 30.84 388.66 207.7 424.54 207.7 424.54 30.84 468.91 30.84 468.91 0 344.29 0 344.29 30.84 382.37 30.84 388.66 30.84"/><path class="cls-1" d="M604.86,180.3a34.57,34.57,0,0,1-14.78,3.16,33.63,33.63,0,0,1-14.59-3.18A32,32,0,0,1,564,170.86c-6.27-8.18-9.44-19.49-9.45-33.34V0H518V139.72c0,18.34,4,33.16,11.06,44.51s17.22,19.41,30.46,24.23a89.41,89.41,0,0,0,30.54,4.9c17.27,0,31.66-3.78,42.87-10.74s19.43-17.11,24.41-30.78c3.3-9.11,5.1-19.83,5.1-32.12V0H626.27V137.52c0,10.42-1.84,19.37-5.47,26.68a34,34,0,0,1-15.94,16.1"/><path class="cls-1" d="M822.37,136.77a61.24,61.24,0,0,0,24.36-25.07c5.6-10.61,8.64-23.49,8.64-38.37,0-17.35-4-31.86-11.25-43.24S826.21,10.3,812,5.22C802.57,1.84,791.51,0,778.9,0H718.17V207.7H754V147H782.8L813,207.7h39.26l-35.16-67.94Zm-27.83-18.42a44.38,44.38,0,0,1-17.84,3.43H754V24.86H776.7a43.72,43.72,0,0,1,17.89,3.55A35.44,35.44,0,0,1,808,38.75c7.1,8.88,10.27,20.89,10.28,34.58,0,10.5-1.79,19.84-5.68,27.64a36.12,36.12,0,0,1-18,17.38"/><polygon class="cls-1" points="940.66 26.75 1008.95 26.75 1008.95 0 904.78 0 904.78 207.7 1008.95 207.7 1008.95 180.94 940.66 180.94 940.66 116.75 1008.95 116.75 1008.95 90.94 940.66 90.94 940.66 26.75"/><polygon class="cls-1" points="1.63 257.87 16.23 257.87 16.23 294.43 32.94 294.43 32.94 307 1.63 307 1.63 257.87"/><path class="cls-1" d="M111.28,301.31H95.42L93.87,307H78.71l16.78-49.12h15.79L128,307H112.82Zm-2.81-10.6-5.12-19.09-5.13,19.09Z"/><path class="cls-1" d="M215.93,293.45c0,8.28-6.17,13.55-15.85,13.55H175.51V257.86h24c9.62,0,15.66,4.92,15.66,12.71,0,6.24-3.73,10.39-9.48,11.44,6,.7,10.24,4.91,10.24,11.44m-25.82-26.18v10.39h4.63c3.58,0,5.83-2,5.83-5.26s-2.18-5.13-5.83-5.13Zm10.95,24.14c0-3.15-2.32-5.26-5.9-5.26h-5v10.67h5c3.72,0,6-2.11,6-5.41"/><path class="cls-1" d="M261.64,282.43c0-14,10-26.11,27.1-26.11s27.09,12.14,27.09,26.11-10,26.11-27.09,26.11-27.1-12.14-27.1-26.11m38.95,0c.08-7-3.93-13.05-11.85-13.05s-11.87,6-11.87,13.05,4,13.06,11.87,13.06,11.93-6,11.85-13.06"/><path class="cls-1" d="M398.24,291.56,406.1,307H389.32L383,294.43h-4.07V307h-14.6V257.86h23.73c10.52,0,18.24,7.79,18.24,18.32a17.76,17.76,0,0,1-8.07,15.38m-19.3-8.43h6c3.72,0,6.53-2.95,6.53-6.95s-2.81-6.94-6.45-6.94h-6.11Z"/><path class="cls-1" d="M484.3,301.31H468.44L466.89,307H451.73l16.78-49.12H484.3L501,307H485.84Zm-2.81-10.6-5.12-19.09-5.13,19.09Z"/><polygon class="cls-1" points="557.17 270.43 544.53 270.43 544.53 257.87 584.47 257.87 584.47 270.43 571.84 270.43 571.84 307 557.17 307 557.17 270.43"/><path class="cls-1" d="M628.91,282.43c0-14,10-26.11,27.09-26.11s27.09,12.14,27.09,26.11-10,26.11-27.09,26.11-27.09-12.14-27.09-26.11m39,0c.08-7-3.93-13.05-11.86-13.05s-11.86,6-11.86,13.05,4,13.06,11.86,13.06,11.94-6,11.86-13.06"/><path class="cls-1" d="M765.51,291.56,773.37,307H756.59l-6.31-12.57h-4.07V307h-14.6V257.86h23.72c10.53,0,18.25,7.79,18.25,18.32a17.76,17.76,0,0,1-8.07,15.38m-19.3-8.43h6c3.72,0,6.53-2.95,6.53-6.95s-2.81-6.94-6.46-6.94h-6.1Z"/><rect class="cls-1" x="823" y="257.87" width="14.6" height="49.13"/><polygon class="cls-1" points="889.13 257.87 920.71 257.87 920.71 268.81 903.73 268.81 903.73 277.38 920.71 277.38 920.71 287.83 903.73 287.83 903.73 296.05 920.71 296.05 920.71 307 889.13 307 889.13 257.87"/><path class="cls-1" d="M968.59,290.92h14.6c0,4.21,2.32,6.81,6.25,6.81,3.16,0,4.91-1.47,4.91-4.07,0-2.25-1.33-3.44-4.63-4.7L980,285.38c-7-2.6-10.53-7.3-10.53-13.9,0-9.12,7.3-15.16,19.23-15.16s19.73,6,19.73,15.72h-14.6c0-3.65-1.9-5.75-5.27-5.75-2.74,0-4.42,1.4-4.42,3.72,0,2,1.34,3.23,5.41,4.77l9,3.44c7.37,2.88,10.46,7.58,10.46,14.18,0,10-7.65,16.14-19.72,16.14-12.85,0-20.64-6.6-20.64-17.62"/></g></g></svg>